<svg xmlns="http://www.w3.org/2000/svg" width="8.486" height="15.842" viewBox="0 0 8.486 15.842">
  <path id="icons8-facebook-f" d="M14.516,18.88a.923.923,0,0,1-.922-.922V11.505H11.953a.924.924,0,0,1-.922-.913L11.02,9.486a.922.922,0,0,1,.922-.931h1.652V6.9c0-2.488,1.269-3.858,3.574-3.858.912,0,1.707.065,1.715.065a.68.68,0,0,1,.624.681V5.47a.685.685,0,0,1-.684.684H17.75a.815.815,0,0,0-.814.814l-.021,1.588h1.636a.922.922,0,0,1,.916,1.028l-.129,1.106a.921.921,0,0,1-.915.815h-1.51v6.453a.923.923,0,0,1-.922.922Z" transform="translate(-11.02 -3.038)" fill="#039be5"/>
</svg>
