<svg id="icons8-google" xmlns="http://www.w3.org/2000/svg" width="15.842" height="15.842" viewBox="0 0 15.842 15.842">
  <path id="Path_3" data-name="Path 3" d="M19.688,10.37H19.05v-.033H11.921v3.168H16.4a4.756,4.756,0,1,1-1.324-5.133l2.24-2.24a7.913,7.913,0,1,0,2.528,5.789A7.975,7.975,0,0,0,19.688,10.37Z" transform="translate(-4 -4)" fill="#ffc107"/>
  <path id="Path_4" data-name="Path 4" d="M6.306,8.234l2.6,1.909a4.743,4.743,0,0,1,7.558-1.771l2.24-2.24a7.906,7.906,0,0,0-12.4,2.1Z" transform="translate(-5.393 -4)" fill="#ff3d00"/>
  <path id="Path_5" data-name="Path 5" d="M13.247,34.369a7.884,7.884,0,0,0,5.311-2.056l-2.452-2.075a4.74,4.74,0,0,1-7.328-2.185L6.2,30.044A7.915,7.915,0,0,0,13.247,34.369Z" transform="translate(-5.326 -18.527)" fill="#4caf50"/>
  <path id="Path_6" data-name="Path 6" d="M31.767,20.033h-.638V20H24v3.168h4.477a4.768,4.768,0,0,1-1.619,2.206h0l2.452,2.075a7.662,7.662,0,0,0,2.61-5.864A7.975,7.975,0,0,0,31.767,20.033Z" transform="translate(-16.079 -13.663)" fill="#1976d2"/>
</svg>
